# Alias OBJ Model File
# Exported from SketchUp, (c) 2000-2012 Trimble Navigation Limited
# File units = millimeters

mtllib MCMan.mtl

g Mesh1 Model

usemtl FrontColor
v 0.570551 6.73584 -2.7
vt 0.106299 0.26519
vn 1 1.29949e-032 3.58414e-018
v 0.570551 6.73584 0.9
vt -0.0354331 0.26519
v 0.570551 3.23584 0.9
vt -0.0354331 0.127395
v 0.570551 3.23584 -8.4599e-015
vt 3.33147e-016 0.127395
v 0.570551 3.23584 -1.8
vt 0.0708661 0.127395
v 0.570551 3.23584 -2.7
vt 0.106299 0.127395
f 1/1/1 2/2/1 3/3/1 4/4/1 5/5/1 6/6/1 

v -2.82945 6.73584 -2.7
vt -0.111396 0.106299
vn 0 1 -1.61696e-015
v -2.82945 6.73584 0.9
vt -0.111396 -0.0354331
vt 0.0224626 -0.0354331
vt 0.0224626 0.106299
f 7/7/2 8/8/2 2/9/2 1/10/2 

v -2.82945 3.23584 -1.8
vt -0.0708661 0.127395
vn -1 -1.29949e-032 -3.58414e-018
v -2.82945 3.23584 -8.4599e-015
vt -3.32668e-016 0.127395
v -2.82945 3.23584 0.9
vt 0.0354331 0.127395
vt 0.0354331 0.26519
vt -0.106299 0.26519
v -2.82945 3.23584 -2.7
vt -0.106299 0.127395
f 9/11/3 10/12/3 11/13/3 8/14/3 7/15/3 12/16/3 

v -4.62945 3.23584 -8.4599e-015
vt -0.182262 1.27074e-016
vt -0.111396 1.27074e-016
vt -0.111396 0.0708661
v -4.62945 3.23584 -1.8
vt -0.182262 0.0708661
f 13/17/2 10/18/2 9/19/2 14/20/2 

v 2.47055 3.23584 -8.4599e-015
vt 0.0972658 0.127395
vn -1.17719e-018 1.14015e-015 1
vt 0.0224626 0.127395
vt -0.111396 0.127395
vt -0.182262 0.127395
v -4.62945 -2.06416 -0
vt -0.182262 -0.0812663
v -2.82945 -2.06416 -0
vt -0.111396 -0.0812663
v -2.82945 -7.36416 2.81997e-015
vt -0.111396 -0.289928
v 0.670551 -7.36416 2.81997e-015
vt 0.0263996 -0.289928
v 0.670551 -2.06416 -0
vt 0.0263996 -0.0812663
v 2.47055 -2.06416 -0
vt 0.0972658 -0.0812663
f 15/21/4 4/22/4 10/23/4 13/24/4 16/25/4 17/26/4 18/27/4 19/28/4 20/29/4 21/30/4 

vt 0.0224626 1.27074e-016
vt 0.0972658 1.27074e-016
v 2.47055 3.23584 -1.8
vt 0.0972658 0.0708661
vt 0.0224626 0.0708661
f 4/31/2 15/32/2 22/33/2 5/34/2 

vt 3.33416e-016 0.127395
vn 1 5.72102e-033 3.58414e-018
vt 3.48614e-019 -0.0812663
v 2.47055 -2.06416 -1.8
vt 0.0708661 -0.0812663
f 15/35/5 21/36/5 23/37/5 22/5/5 

vt -0.0972658 1.31404e-016
vn 0 -1 1.61696e-015
vt -0.0263996 1.31404e-016
v 0.670551 -2.06416 -1.8
vt -0.0263996 0.0708661
vt -0.0972658 0.0708661
f 21/38/6 20/39/6 24/40/6 23/41/6 

vt 9.46199e-020 -0.0812663
vn 1 1.90701e-033 3.58414e-018
vt -1.10928e-016 -0.289928
v 0.670551 -7.36416 -1.8
vt 0.0708661 -0.289928
f 20/42/7 19/43/7 25/44/7 24/37/7 

vt -0.0263996 3.57779e-016
vt 0.111396 3.57779e-016
v -2.82945 -7.36416 -1.8
vt 0.111396 0.0708661
vt -0.0263996 0.0708661
f 19/45/6 18/46/6 26/47/6 25/48/6 

vt 1.11422e-016 -0.289928
vn -1 -1.90701e-033 -3.58414e-018
vt 3.99257e-019 -0.0812663
v -2.82945 -2.06416 -1.8
vt -0.0708661 -0.0812663
vt -0.0708661 -0.289928
f 18/49/8 17/50/8 27/51/8 26/52/8 

vt 0.111396 1.31404e-016
vt 0.182262 1.31404e-016
v -4.62945 -2.06416 -1.8
vt 0.182262 0.0708661
vt 0.111396 0.0708661
f 17/53/6 16/54/6 28/55/6 27/56/6 

vt 6.53251e-019 -0.0812663
vn -1 -5.72102e-033 -3.58414e-018
vt -3.32414e-016 0.127395
f 16/57/9 13/58/9 14/11/9 28/51/9 

vt 0.182262 0.127395
vn 1.17719e-018 -1.14015e-015 -1
vt 0.111396 0.127395
vt -0.0224626 0.127395
vt -0.0972658 0.127395
vt -0.0972658 -0.0812663
vt -0.0263996 -0.0812663
vt -0.0263996 -0.289928
vt 0.111396 -0.289928
vt 0.111396 -0.0812663
vt 0.182262 -0.0812663
f 14/59/10 9/60/10 5/61/10 22/62/10 23/63/10 24/64/10 25/65/10 26/66/10 27/67/10 28/68/10 

vt 0.0224626 0.0708661
vn 0 1 -1.56665e-015
vt -0.111396 0.0708661
vt -0.111396 1.33484e-016
vt 0.0224626 1.33484e-016
f 5/69/11 9/70/11 10/71/11 4/72/11 

vt -0.0224626 0.0708661
vn 0 -1 3.62567e-015
vt 0.111396 0.0708661
vt 0.111396 0.106299
vt -0.0224626 0.106299
f 5/73/12 9/74/12 12/75/12 6/76/12 

vt -0.0224626 0.26519
vn 0 -3.62567e-015 -1
vt -0.0224626 0.127395
vt 0.111396 0.127395
vt 0.111396 0.26519
f 1/77/13 6/78/13 12/79/13 7/80/13 

vt 0.111396 -1.28826e-016
vt -0.0224626 -1.28826e-016
vt -0.0224626 -0.0354331
vt 0.111396 -0.0354331
f 10/81/12 4/82/12 3/83/12 11/84/12 

vt -0.111396 0.26519
vn 0 3.62567e-015 1
vt 0.0224626 0.26519
f 8/85/14 11/23/14 3/22/14 2/86/14 

